# xmcd
#
# Track frame offsets:
#	150
#	14472
#	32103
#	45443
#	59753
#	69978
#	87173
#	105973
#	121116
#	139551
#	161319
#	177469
#	194471
#	211774
#	230650
#	246097
#	261023
#	279006
#	292492
#	304371
#
# Disc length: 4381 seconds
#
# Revision: 1
# Processed by: cddbd v1.5.2PL0 Copyright (c) Steve Scherf et al.
# Submitted via: audiograbber 1.83.01
#
DISCID=1a111b14
DTITLE=Various Artist - Nu Rock Traxx 038
DYEAR=2002
DGENRE=Rock
TTITLE0=Chad Kroeger Ft Josey Scott - Hero
TTITLE1=Audiovent - The Energy
TTITLE2=311 - Amber
TTITLE3=Trust Company - Downfall
TTITLE4=Weezer - Dope Nose
TTITLE5=Course Of Nature - Wall Of Shame
TTITLE6=Kid Rock - You Never Met A Motherf___er Quite Like Me
TTITLE7=Butch Walker - My Way
TTITLE8=Puddle Of Mudd - Drift And Die
TTITLE9=Doves - There Goes The Fear
TTITLE10=Sum 41 - It's What We're All About
TTITLE11=Dashboard Confessional - Screaming Infidelities
TTITLE12=2 Skinnee J's - Grown Up
TTITLE13=Our Lady Peace - Somewhere Out There
TTITLE14=Box Car Racer - I Feel So
TTITLE15=Mushroomhead - Along The Way
TTITLE16=Creed - One Last Breath
TTITLE17=Hatebreed - I Will Be Heard
TTITLE18=Riddlin' Kids - I Feel Fine
TTITLE19=Jerry Cantrell - Anger Rising
EXTD=
EXTT0=
EXTT1=
EXTT2=
EXTT3=
EXTT4=
EXTT5=
EXTT6=
EXTT7=
EXTT8=
EXTT9=
EXTT10=
EXTT11=
EXTT12=
EXTT13=
EXTT14=
EXTT15=
EXTT16=
EXTT17=
EXTT18=
EXTT19=
PLAYORDER=
